ffmpeg started on 2025-05-13 at 10:26:27
Report written to "D:\Convert\FFMetrics\reports\ssim_report-6.txt"
Log level: 32
Command line:
ffmpeg -hide_banner -nostdin -i "G:\\\xc0\xed\xe8\xec\xe5\\\xce\xed\xe3\xee\xe8\xed\xe3\xe8\\!_35_\xcb\xe5\xf2\xee_2024\\DreamCast-1\\\xd3 \xec\xee\xe5\xe9 \xe6\xe5\xed\xfb \xed\xe5\xf2 \xfd\xec\xee\xf6\xe8\xe9\\[DC] Boku no Tsuma wa Kanjou ga Nai - 10_Telegram_HEVC.mkv" -i "G:\\\xc0\xed\xe8\xec\xe5\\\xce\xed\xe3\xee\xe8\xed\xe3\xe8\\!_35_\xcb\xe5\xf2\xee_2024\\DreamCast-1\\\xd3 \xec\xee\xe5\xe9 \xe6\xe5\xed\xfb \xed\xe5\xf2 \xfd\xec\xee\xf6\xe8\xe9\\[DC] Boku no Tsuma wa Kanjou ga Nai - 10_Telegram.mp4" -lavfi "[0:v]settb=AVTB,setpts=PTS-STARTPTS,format=pix_fmts=yuv420p10,fps=24000/1001,scale=1920:1080:flags=bicubic[main];[1:v]settb=AVTB,setpts=PTS-STARTPTS,format=pix_fmts=yuv420p,fps=24000/1001,scale=1920:1080:flags=bicubic[ref];[main][ref]ssim=eof_action=endall:stats_file='D\\:/Convert/FFMetrics/logs/ssim_logfile-6.txt'" -f null -
Input #0, matroska,webm, from 'G:\Аниме\Онгоинги\!_35_Лето_2024\DreamCast-1\У моей жены нет эмоций\[DC] Boku no Tsuma wa Kanjou ga Nai - 10_Telegram_HEVC.mkv':
  Metadata:
    COMPATIBLE_BRANDS: isomiso2avc1mp41
    MAJOR_BRAND     : isom
    MINOR_VERSION   : 512
    ENCODER         : Lavf61.7.100
  Duration: 00:23:46.60, start: -0.021000, bitrate: 1075 kb/s
  Stream #0:0: Video: hevc (Main 10), yuv420p10le(tv, bt709, progressive), 1920x1080 [SAR 1:1 DAR 16:9], 23.98 fps, 23.98 tbr, 1k tbn (default)
      Metadata:
        HANDLER_NAME    : VideoHandler
        VENDOR_ID       : [0][0][0][0]
        ENCODER         : Lavc61.19.100 libx265
        BPS             : 877340
        DURATION        : 00:23:46.508708333
        NUMBER_OF_FRAMES: 34202
        NUMBER_OF_BYTES : 156441599
        _STATISTICS_WRITING_APP: mkvpropedit v66.0.0 ('Josie') 64-bit
        _STATISTICS_WRITING_DATE_UTC: 2025-05-11 13:36:05
        _STATISTICS_TAGS: BPS DURATION NUMBER_OF_FRAMES NUMBER_OF_BYTES
  Stream #0:1: Audio: aac (LC), 48000 Hz, stereo, fltp (default)
      Metadata:
        HANDLER_NAME    : SoundHandler
        VENDOR_ID       : [0][0][0][0]
        ENCODER         : Lavc61.19.100 aac
        BPS             : 193957
        DURATION        : 00:23:46.602000000
        NUMBER_OF_FRAMES: 66873
        NUMBER_OF_BYTES : 34587473
        _STATISTICS_WRITING_APP: mkvpropedit v66.0.0 ('Josie') 64-bit
        _STATISTICS_WRITING_DATE_UTC: 2025-05-11 13:36:05
        _STATISTICS_TAGS: BPS DURATION NUMBER_OF_FRAMES NUMBER_OF_BYTES
Input #1, mov,mp4,m4a,3gp,3g2,mj2, from 'G:\Аниме\Онгоинги\!_35_Лето_2024\DreamCast-1\У моей жены нет эмоций\[DC] Boku no Tsuma wa Kanjou ga Nai - 10_Telegram.mp4':
  Metadata:
    major_brand     : isom
    minor_version   : 512
    compatible_brands: isomiso2avc1mp41
    encoder         : Lavf61.1.100
  Duration: 00:23:46.57, start: 0.000000, bitrate: 3821 kb/s
  Stream #1:0[0x1](und): Video: h264 (High) (avc1 / 0x31637661), yuv420p(tv, bt709, progressive), 1920x1080 [SAR 1:1 DAR 16:9], 3673 kb/s, 23.98 fps, 23.98 tbr, 24k tbn (default)
      Metadata:
        handler_name    : VideoHandler
        vendor_id       : [0][0][0][0]
        encoder         : Lavc61.3.100 h264_qsv
  Stream #1:1[0x2](und): Audio: aac (HE-AACv2) (mp4a / 0x6134706D), 48000 Hz, stereo, fltp, 144 kb/s (default)
      Metadata:
        handler_name    : SoundHandler
        vendor_id       : [0][0][0][0]
Stream mapping:
  Stream #0:0 (hevc) -> settb:default
  Stream #1:0 (h264) -> settb:default
  ssim:default -> Stream #0:0 (wrapped_avframe)
  Stream #0:1 -> #0:1 (aac (native) -> pcm_s16le (native))
Output #0, null, to 'pipe:':
  Metadata:
    COMPATIBLE_BRANDS: isomiso2avc1mp41
    MAJOR_BRAND     : isom
    MINOR_VERSION   : 512
    encoder         : Lavf61.7.100
  Stream #0:0: Video: wrapped_avframe, yuv420p10le(tv, bt709, progressive), 1920x1080 [SAR 1:1 DAR 16:9], q=2-31, 200 kb/s, 23.98 fps, 23.98 tbn
      Metadata:
        encoder         : Lavc61.19.100 wrapped_avframe
  Stream #0:1: Audio: pcm_s16le, 48000 Hz, stereo, s16, 1536 kb/s (default)
      Metadata:
        HANDLER_NAME    : SoundHandler
        VENDOR_ID       : [0][0][0][0]
        _STATISTICS_TAGS: BPS DURATION NUMBER_OF_FRAMES NUMBER_OF_BYTES
        BPS             : 193957
        DURATION        : 00:23:46.602000000
        NUMBER_OF_FRAMES: 66873
        NUMBER_OF_BYTES : 34587473
        _STATISTICS_WRITING_APP: mkvpropedit v66.0.0 ('Josie') 64-bit
        _STATISTICS_WRITING_DATE_UTC: 2025-05-11 13:36:05
        encoder         : Lavc61.19.100 pcm_s16le
frame=  172 fps=0.0 q=-0.0 size=N/A time=00:00:07.17 bitrate=N/A speed=14.1x    frame=  359 fps=353 q=-0.0 size=N/A time=00:00:14.97 bitrate=N/A speed=14.7x    frame=  613 fps=398 q=-0.0 size=N/A time=00:00:25.56 bitrate=N/A speed=16.6x    frame=  885 fps=430 q=-0.0 size=N/A time=00:00:36.91 bitrate=N/A speed=17.9x    frame= 1148 fps=448 q=-0.0 size=N/A time=00:00:47.88 bitrate=N/A speed=18.7x    frame= 1393 fps=451 q=-0.0 size=N/A time=00:00:58.09 bitrate=N/A speed=18.8x    frame= 1639 fps=456 q=-0.0 size=N/A time=00:01:08.35 bitrate=N/A speed=  19x    frame= 1890 fps=459 q=-0.0 size=N/A time=00:01:18.82 bitrate=N/A speed=19.1x    frame= 2155 fps=466 q=-0.0 size=N/A time=00:01:29.88 bitrate=N/A speed=19.4x    frame= 2397 fps=465 q=-0.0 size=N/A time=00:01:39.97 bitrate=N/A speed=19.4x    frame= 2637 fps=466 q=-0.0 size=N/A time=00:01:49.98 bitrate=N/A speed=19.4x    frame= 2847 fps=460 q=-0.0 size=N/A time=00:01:58.74 bitrate=N/A speed=19.2x    frame= 3078 fps=460 q=-0.0 size=N/A time=00:02:08.37 bitrate=N/A speed=19.2x    frame= 3281 fps=455 q=-0.0 size=N/A time=00:02:16.84 bitrate=N/A speed=  19x    frame= 3512 fps=454 q=-0.0 size=N/A time=00:02:26.47 bitrate=N/A speed=18.9x    frame= 3721 fps=451 q=-0.0 size=N/A time=00:02:35.19 bitrate=N/A speed=18.8x    frame= 3877 fps=443 q=-0.0 size=N/A time=00:02:41.70 bitrate=N/A speed=18.5x    frame= 4086 fps=440 q=-0.0 size=N/A time=00:02:50.42 bitrate=N/A speed=18.4x    frame= 4241 fps=434 q=-0.0 size=N/A time=00:02:56.88 bitrate=N/A speed=18.1x    frame= 4469 fps=434 q=-0.0 size=N/A time=00:03:06.39 bitrate=N/A speed=18.1x    frame= 4670 fps=432 q=-0.0 size=N/A time=00:03:14.77 bitrate=N/A speed=  18x    frame= 4886 fps=431 q=-0.0 size=N/A time=00:03:23.78 bitrate=N/A speed=  18x    frame= 5085 fps=429 q=-0.0 size=N/A time=00:03:32.08 bitrate=N/A speed=17.9x    frame= 5296 fps=428 q=-0.0 size=N/A time=00:03:40.88 bitrate=N/A speed=17.9x    frame= 5526 fps=429 q=-0.0 size=N/A time=00:03:50.48 bitrate=N/A speed=17.9x    frame= 5752 fps=429 q=-0.0 size=N/A time=00:03:59.90 bitrate=N/A speed=17.9x    frame= 5981 fps=430 q=-0.0 size=N/A time=00:04:09.45 bitrate=N/A speed=17.9x    frame= 6226 fps=432 q=-0.0 size=N/A time=00:04:19.67 bitrate=N/A speed=  18x    frame= 6422 fps=430 q=-0.0 size=N/A time=00:04:27.85 bitrate=N/A speed=17.9x    frame= 6646 fps=430 q=-0.0 size=N/A time=00:04:37.19 bitrate=N/A speed=17.9x    frame= 6870 fps=430 q=-0.0 size=N/A time=00:04:46.53 bitrate=N/A speed=17.9x    frame= 7081 fps=429 q=-0.0 size=N/A time=00:04:55.33 bitrate=N/A speed=17.9x    frame= 7317 fps=430 q=-0.0 size=N/A time=00:05:05.17 bitrate=N/A speed=17.9x    frame= 7580 fps=432 q=-0.0 size=N/A time=00:05:16.14 bitrate=N/A speed=  18x    frame= 7840 fps=435 q=-0.0 size=N/A time=00:05:26.99 bitrate=N/A speed=18.1x    frame= 8098 fps=436 q=-0.0 size=N/A time=00:05:37.75 bitrate=N/A speed=18.2x    frame= 8342 fps=438 q=-0.0 size=N/A time=00:05:47.93 bitrate=N/A speed=18.3x    frame= 8571 fps=438 q=-0.0 size=N/A time=00:05:57.48 bitrate=N/A speed=18.3x    frame= 8832 fps=439 q=-0.0 size=N/A time=00:06:08.36 bitrate=N/A speed=18.3x    frame= 9064 fps=440 q=-0.0 size=N/A time=00:06:18.04 bitrate=N/A speed=18.3x    frame= 9315 fps=441 q=-0.0 size=N/A time=00:06:28.51 bitrate=N/A speed=18.4x    frame= 9570 fps=442 q=-0.0 size=N/A time=00:06:39.14 bitrate=N/A speed=18.4x    frame= 9811 fps=443 q=-0.0 size=N/A time=00:06:49.20 bitrate=N/A speed=18.5x    frame=10041 fps=443 q=-0.0 size=N/A time=00:06:58.79 bitrate=N/A speed=18.5x    frame=10254 fps=442 q=-0.0 size=N/A time=00:07:07.67 bitrate=N/A speed=18.4x    frame=10492 fps=442 q=-0.0 size=N/A time=00:07:17.60 bitrate=N/A speed=18.5x    frame=10735 fps=443 q=-0.0 size=N/A time=00:07:27.73 bitrate=N/A speed=18.5x    frame=10962 fps=443 q=-0.0 size=N/A time=00:07:37.20 bitrate=N/A speed=18.5x    frame=11175 fps=442 q=-0.0 size=N/A time=00:07:46.09 bitrate=N/A speed=18.4x    frame=11401 fps=442 q=-0.0 size=N/A time=00:07:55.51 bitrate=N/A speed=18.4x    frame=11575 fps=440 q=-0.0 size=N/A time=00:08:02.77 bitrate=N/A speed=18.4x    frame=11804 fps=440 q=-0.0 size=N/A time=00:08:12.32 bitrate=N/A speed=18.4x    frame=12029 fps=440 q=-0.0 size=N/A time=00:08:21.70 bitrate=N/A speed=18.4x    frame=12261 fps=440 q=-0.0 size=N/A time=00:08:31.38 bitrate=N/A speed=18.4x    frame=12516 fps=441 q=-0.0 size=N/A time=00:08:42.02 bitrate=N/A speed=18.4x    frame=12747 fps=441 q=-0.0 size=N/A time=00:08:51.65 bitrate=N/A speed=18.4x    frame=13009 fps=443 q=-0.0 size=N/A time=00:09:02.58 bitrate=N/A speed=18.5x    frame=13238 fps=442 q=-0.0 size=N/A time=00:09:12.13 bitrate=N/A speed=18.5x    frame=13450 fps=442 q=-0.0 size=N/A time=00:09:20.97 bitrate=N/A speed=18.4x    frame=13683 fps=442 q=-0.0 size=N/A time=00:09:30.69 bitrate=N/A speed=18.4x    frame=13943 fps=443 q=-0.0 size=N/A time=00:09:41.53 bitrate=N/A speed=18.5x    frame=14188 fps=444 q=-0.0 size=N/A time=00:09:51.75 bitrate=N/A speed=18.5x    frame=14411 fps=444 q=-0.0 size=N/A time=00:10:01.05 bitrate=N/A speed=18.5x    frame=14655 fps=444 q=-0.0 size=N/A time=00:10:11.23 bitrate=N/A speed=18.5x    frame=14909 fps=445 q=-0.0 size=N/A time=00:10:21.82 bitrate=N/A speed=18.6x    frame=15147 fps=445 q=-0.0 size=N/A time=00:10:31.75 bitrate=N/A speed=18.6x    frame=15365 fps=445 q=-0.0 size=N/A time=00:10:40.84 bitrate=N/A speed=18.5x    frame=15598 fps=445 q=-0.0 size=N/A time=00:10:50.56 bitrate=N/A speed=18.5x    frame=15833 fps=445 q=-0.0 size=N/A time=00:11:00.36 bitrate=N/A speed=18.6x    frame=16066 fps=445 q=-0.0 size=N/A time=00:11:10.08 bitrate=N/A speed=18.6x    frame=16320 fps=446 q=-0.0 size=N/A time=00:11:20.68 bitrate=N/A speed=18.6x    frame=16562 fps=446 q=-0.0 size=N/A time=00:11:30.77 bitrate=N/A speed=18.6x    frame=16806 fps=446 q=-0.0 size=N/A time=00:11:40.95 bitrate=N/A speed=18.6x    frame=16987 fps=445 q=-0.0 size=N/A time=00:11:48.49 bitrate=N/A speed=18.6x    frame=17244 fps=446 q=-0.0 size=N/A time=00:11:59.21 bitrate=N/A speed=18.6x    frame=17488 fps=446 q=-0.0 size=N/A time=00:12:09.39 bitrate=N/A speed=18.6x    frame=17741 fps=447 q=-0.0 size=N/A time=00:12:19.94 bitrate=N/A speed=18.6x    frame=17994 fps=447 q=-0.0 size=N/A time=00:12:30.49 bitrate=N/A speed=18.7x    frame=18233 fps=447 q=-0.0 size=N/A time=00:12:40.46 bitrate=N/A speed=18.7x    frame=18465 fps=448 q=-0.0 size=N/A time=00:12:50.14 bitrate=N/A speed=18.7x    frame=18663 fps=447 q=-0.0 size=N/A time=00:12:58.40 bitrate=N/A speed=18.6x    frame=18919 fps=447 q=-0.0 size=N/A time=00:13:09.07 bitrate=N/A speed=18.7x    frame=19173 fps=448 q=-0.0 size=N/A time=00:13:19.67 bitrate=N/A speed=18.7x    frame=19418 fps=448 q=-0.0 size=N/A time=00:13:29.89 bitrate=N/A speed=18.7x    frame=19641 fps=448 q=-0.0 size=N/A time=00:13:39.19 bitrate=N/A speed=18.7x    frame=19861 fps=448 q=-0.0 size=N/A time=00:13:48.36 bitrate=N/A speed=18.7x    frame=20083 fps=447 q=-0.0 size=N/A time=00:13:57.62 bitrate=N/A speed=18.7x    frame=20323 fps=448 q=-0.0 size=N/A time=00:14:07.63 bitrate=N/A speed=18.7x    frame=20582 fps=448 q=-0.0 size=N/A time=00:14:18.44 bitrate=N/A speed=18.7x    frame=20828 fps=449 q=-0.0 size=N/A time=00:14:28.70 bitrate=N/A speed=18.7x    frame=21059 fps=449 q=-0.0 size=N/A time=00:14:38.33 bitrate=N/A speed=18.7x    frame=21314 fps=449 q=-0.0 size=N/A time=00:14:48.97 bitrate=N/A speed=18.7x    frame=21565 fps=449 q=-0.0 size=N/A time=00:14:59.44 bitrate=N/A speed=18.7x    frame=21817 fps=450 q=-0.0 size=N/A time=00:15:09.95 bitrate=N/A speed=18.8x    frame=22038 fps=450 q=-0.0 size=N/A time=00:15:19.16 bitrate=N/A speed=18.8x    frame=22262 fps=449 q=-0.0 size=N/A time=00:15:28.51 bitrate=N/A speed=18.7x    frame=22497 fps=450 q=-0.0 size=N/A time=00:15:38.31 bitrate=N/A speed=18.8x    frame=22735 fps=450 q=-0.0 size=N/A time=00:15:48.23 bitrate=N/A speed=18.8x    frame=22986 fps=450 q=-0.0 size=N/A time=00:15:58.70 bitrate=N/A speed=18.8x    frame=23253 fps=451 q=-0.0 size=N/A time=00:16:09.84 bitrate=N/A speed=18.8x    frame=23514 fps=451 q=-0.0 size=N/A time=00:16:20.72 bitrate=N/A speed=18.8x    frame=23782 fps=452 q=-0.0 size=N/A time=00:16:31.90 bitrate=N/A speed=18.9x    frame=24045 fps=453 q=-0.0 size=N/A time=00:16:42.87 bitrate=N/A speed=18.9x    frame=24253 fps=452 q=-0.0 size=N/A time=00:16:51.55 bitrate=N/A speed=18.9x    frame=24504 fps=452 q=-0.0 size=N/A time=00:17:02.02 bitrate=N/A speed=18.9x    frame=24751 fps=453 q=-0.0 size=N/A time=00:17:12.32 bitrate=N/A speed=18.9x    frame=24988 fps=453 q=-0.0 size=N/A time=00:17:22.24 bitrate=N/A speed=18.9x    frame=25216 fps=453 q=-0.0 size=N/A time=00:17:31.71 bitrate=N/A speed=18.9x    frame=25475 fps=453 q=-0.0 size=N/A time=00:17:42.51 bitrate=N/A speed=18.9x    frame=25726 fps=453 q=-0.0 size=N/A time=00:17:52.98 bitrate=N/A speed=18.9x    frame=26000 fps=454 q=-0.0 size=N/A time=00:18:04.41 bitrate=N/A speed=18.9x    frame=26232 fps=454 q=-0.0 size=N/A time=00:18:14.09 bitrate=N/A speed=18.9x    frame=26483 fps=454 q=-0.0 size=N/A time=00:18:24.56 bitrate=N/A speed=18.9x    frame=26731 fps=455 q=-0.0 size=N/A time=00:18:34.90 bitrate=N/A speed=  19x    frame=26941 fps=454 q=-0.0 size=N/A time=00:18:43.66 bitrate=N/A speed=18.9x    frame=27159 fps=454 q=-0.0 size=N/A time=00:18:52.75 bitrate=N/A speed=18.9x    frame=27361 fps=453 q=-0.0 size=N/A time=00:19:01.18 bitrate=N/A speed=18.9x    frame=27598 fps=453 q=-0.0 size=N/A time=00:19:11.06 bitrate=N/A speed=18.9x    frame=27824 fps=453 q=-0.0 size=N/A time=00:19:20.49 bitrate=N/A speed=18.9x    frame=28077 fps=454 q=-0.0 size=N/A time=00:19:31.04 bitrate=N/A speed=18.9x    frame=28310 fps=454 q=-0.0 size=N/A time=00:19:40.76 bitrate=N/A speed=18.9x    frame=28568 fps=454 q=-0.0 size=N/A time=00:19:51.52 bitrate=N/A speed=18.9x    frame=28825 fps=454 q=-0.0 size=N/A time=00:20:02.24 bitrate=N/A speed=18.9x    frame=29051 fps=454 q=-0.0 size=N/A time=00:20:11.66 bitrate=N/A speed=18.9x    frame=29243 fps=454 q=-0.0 size=N/A time=00:20:19.67 bitrate=N/A speed=18.9x    frame=29455 fps=453 q=-0.0 size=N/A time=00:20:28.51 bitrate=N/A speed=18.9x    frame=29707 fps=454 q=-0.0 size=N/A time=00:20:39.02 bitrate=N/A speed=18.9x    frame=29966 fps=454 q=-0.0 size=N/A time=00:20:49.83 bitrate=N/A speed=18.9x    frame=30222 fps=454 q=-0.0 size=N/A time=00:21:00.50 bitrate=N/A speed=18.9x    frame=30477 fps=455 q=-0.0 size=N/A time=00:21:11.14 bitrate=N/A speed=  19x    frame=30740 fps=455 q=-0.0 size=N/A time=00:21:22.11 bitrate=N/A speed=  19x    frame=31000 fps=455 q=-0.0 size=N/A time=00:21:32.95 bitrate=N/A speed=  19x    frame=31225 fps=455 q=-0.0 size=N/A time=00:21:42.34 bitrate=N/A speed=  19x    frame=31505 fps=456 q=-0.0 size=N/A time=00:21:54.02 bitrate=N/A speed=  19x    frame=31769 fps=456 q=-0.0 size=N/A time=00:22:05.03 bitrate=N/A speed=  19x    frame=32014 fps=456 q=-0.0 size=N/A time=00:22:15.25 bitrate=N/A speed=  19x    frame=32214 fps=456 q=-0.0 size=N/A time=00:22:23.59 bitrate=N/A speed=  19x    frame=32451 fps=456 q=-0.0 size=N/A time=00:22:33.47 bitrate=N/A speed=  19x    frame=32650 fps=455 q=-0.0 size=N/A time=00:22:41.77 bitrate=N/A speed=  19x    frame=32834 fps=455 q=-0.0 size=N/A time=00:22:49.45 bitrate=N/A speed=  19x    frame=33031 fps=454 q=-0.0 size=N/A time=00:22:57.66 bitrate=N/A speed=18.9x    frame=33241 fps=454 q=-0.0 size=N/A time=00:23:06.42 bitrate=N/A speed=18.9x    frame=33430 fps=453 q=-0.0 size=N/A time=00:23:14.30 bitrate=N/A speed=18.9x    frame=33634 fps=453 q=-0.0 size=N/A time=00:23:22.81 bitrate=N/A speed=18.9x    frame=33849 fps=453 q=-0.0 size=N/A time=00:23:31.78 bitrate=N/A speed=18.9x    frame=34088 fps=453 q=-0.0 size=N/A time=00:23:41.75 bitrate=N/A speed=18.9x    [Parsed_ssim_10 @ 0000021c9376d900] SSIM Y:0.994285 (22.429473) U:0.995214 (23.200381) V:0.995351 (23.326528) All:0.994617 (22.689936)
[out#0/null @ 0000021c86642d40] video:14696KiB audio:267492KiB subtitle:0KiB other streams:0KiB global headers:0KiB muxing overhead: unknown
frame=34202 fps=451 q=-0.0 Lsize=N/A time=00:23:46.50 bitrate=N/A speed=18.8x    
